<svg xmlns="http://www.w3.org/2000/svg" xmlns:xlink="http://www.w3.org/1999/xlink" width="1280" zoomAndPan="magnify" viewBox="0 0 960 540.000001" height="720" preserveAspectRatio="xMidYMid meet" version="1.0"><defs><g/></defs><g fill="#000000" fill-opacity="1"><g transform="translate(60.972426, 285.145018)"><g><path d="M 55.613281 4.488281 L 55.613281 -4.015625 L 12.160156 -24.558594 L 55.613281 -45.222656 L 55.613281 -53.722656 L 5.3125 -28.808594 L 5.3125 -20.425781 Z M 55.613281 4.488281 "/></g></g></g><g fill="#000000" fill-opacity="1"><g transform="translate(121.891228, 285.145018)"><g><path d="M 50.179688 -25.976562 C 50.179688 -20.898438 48.410156 -16.410156 44.867188 -12.75 C 41.324219 -8.972656 36.957031 -7.085938 31.878906 -7.085938 C 26.683594 -7.085938 22.316406 -8.972656 18.773438 -12.75 C 15.230469 -16.410156 13.578125 -20.898438 13.578125 -25.976562 C 13.578125 -30.933594 15.230469 -35.421875 18.773438 -39.199219 C 22.316406 -42.976562 26.683594 -44.867188 31.878906 -44.867188 C 36.957031 -44.867188 41.324219 -42.976562 44.867188 -39.199219 C 48.410156 -35.421875 50.179688 -30.933594 50.179688 -25.976562 Z M 58.445312 0 L 58.445312 -51.953125 L 50.179688 -51.953125 L 50.179688 -42.976562 C 49.707031 -43.6875 49.117188 -44.277344 48.644531 -44.867188 C 43.6875 -50.296875 37.664062 -53.132812 30.582031 -53.132812 C 23.378906 -53.132812 17.355469 -50.296875 12.398438 -44.867188 C 7.675781 -39.4375 5.3125 -33.179688 5.3125 -25.976562 C 5.3125 -18.65625 7.675781 -12.398438 12.398438 -7.085938 C 17.355469 -1.535156 23.378906 1.179688 30.582031 1.179688 C 37.664062 1.179688 43.6875 -1.535156 48.644531 -7.085938 C 49.117188 -7.554688 49.707031 -8.148438 50.179688 -8.855469 L 50.179688 0 Z M 58.445312 0 "/></g></g></g><g fill="#000000" fill-opacity="1"><g transform="translate(189.185251, 285.145018)"><g><path d="M 50.179688 -25.976562 C 50.179688 -20.898438 48.410156 -16.410156 44.867188 -12.75 C 41.324219 -8.972656 36.957031 -7.085938 31.878906 -7.085938 C 26.683594 -7.085938 22.316406 -8.972656 18.773438 -12.75 C 15.230469 -16.410156 13.578125 -20.898438 13.578125 -25.976562 C 13.578125 -30.933594 15.230469 -35.421875 18.773438 -39.199219 C 22.316406 -42.976562 26.683594 -44.867188 31.878906 -44.867188 C 36.957031 -44.867188 41.324219 -42.976562 44.867188 -39.199219 C 48.410156 -35.421875 50.179688 -30.933594 50.179688 -25.976562 Z M 58.445312 0 L 58.445312 -88.554688 L 50.179688 -88.554688 L 50.179688 -42.976562 C 49.707031 -43.6875 49.117188 -44.277344 48.644531 -44.867188 C 43.6875 -50.296875 37.664062 -53.132812 30.582031 -53.132812 C 23.378906 -53.132812 17.355469 -50.296875 12.398438 -44.867188 C 7.675781 -39.4375 5.3125 -33.179688 5.3125 -25.976562 C 5.3125 -18.65625 7.675781 -12.398438 12.398438 -7.085938 C 17.355469 -1.535156 23.378906 1.179688 30.582031 1.179688 C 37.664062 1.179688 43.6875 -1.535156 48.644531 -7.085938 C 49.117188 -7.554688 49.707031 -8.148438 50.179688 -8.855469 L 50.179688 0 Z M 58.445312 0 "/></g></g></g><g fill="#000000" fill-opacity="1"><g transform="translate(256.479275, 285.145018)"><g><path d="M 50.179688 -25.976562 C 50.179688 -20.898438 48.410156 -16.410156 44.867188 -12.75 C 41.324219 -8.972656 36.957031 -7.085938 31.878906 -7.085938 C 26.683594 -7.085938 22.316406 -8.972656 18.773438 -12.75 C 15.230469 -16.410156 13.578125 -20.898438 13.578125 -25.976562 C 13.578125 -30.933594 15.230469 -35.421875 18.773438 -39.199219 C 22.316406 -42.976562 26.683594 -44.867188 31.878906 -44.867188 C 36.957031 -44.867188 41.324219 -42.976562 44.867188 -39.199219 C 48.410156 -35.421875 50.179688 -30.933594 50.179688 -25.976562 Z M 58.445312 0 L 58.445312 -51.953125 L 50.179688 -51.953125 L 50.179688 -42.976562 C 49.707031 -43.6875 49.117188 -44.277344 48.644531 -44.867188 C 43.6875 -50.296875 37.664062 -53.132812 30.582031 -53.132812 C 23.378906 -53.132812 17.355469 -50.296875 12.398438 -44.867188 C 7.675781 -39.4375 5.3125 -33.179688 5.3125 -25.976562 C 5.3125 -18.65625 7.675781 -12.398438 12.398438 -7.085938 C 17.355469 -1.535156 23.378906 1.179688 30.582031 1.179688 C 37.664062 1.179688 43.6875 -1.535156 48.644531 -7.085938 C 49.117188 -7.554688 49.707031 -8.148438 50.179688 -8.855469 L 50.179688 0 Z M 58.445312 0 "/></g></g></g><g fill="#000000" fill-opacity="1"><g transform="translate(323.773298, 285.145018)"><g><path d="M 59.746094 -88.554688 L 50.890625 -88.554688 L 5.078125 23.734375 L 13.933594 23.734375 Z M 59.746094 -88.554688 "/></g></g></g><g fill="#000000" fill-opacity="1"><g transform="translate(387.289424, 285.145018)"><g><path d="M 17.121094 0 L 17.121094 -88.554688 L 8.855469 -88.554688 L 8.855469 0 Z M 17.121094 0 "/></g></g></g><g fill="#000000" fill-opacity="1"><g transform="translate(413.262568, 285.145018)"><g><path d="M 51.359375 -26.210938 C 51.359375 -21.015625 49.472656 -16.648438 45.8125 -12.988281 C 42.035156 -9.210938 37.664062 -7.4375 32.46875 -7.4375 C 27.273438 -7.4375 22.789062 -9.210938 19.128906 -12.988281 C 15.347656 -16.648438 13.578125 -21.015625 13.578125 -26.210938 C 13.578125 -31.40625 15.347656 -35.777344 19.128906 -39.554688 C 22.789062 -43.214844 27.273438 -45.101562 32.46875 -45.101562 C 37.664062 -45.101562 42.035156 -43.214844 45.8125 -39.554688 C 49.472656 -35.777344 51.359375 -31.40625 51.359375 -26.210938 Z M 59.625 -26.210938 C 59.625 -33.652344 56.910156 -40.027344 51.597656 -45.339844 C 46.285156 -50.652344 39.910156 -53.367188 32.46875 -53.367188 C 24.914062 -53.367188 18.539062 -50.652344 13.222656 -45.339844 C 7.910156 -40.027344 5.3125 -33.652344 5.3125 -26.210938 C 5.3125 -18.65625 7.910156 -12.28125 13.222656 -7.085938 C 18.539062 -1.769531 25.03125 0.828125 32.46875 0.828125 C 39.789062 0.828125 46.285156 -1.769531 51.597656 -7.085938 C 56.910156 -12.28125 59.625 -18.65625 59.625 -26.210938 Z M 59.625 -26.210938 "/></g></g></g><g fill="#000000" fill-opacity="1"><g transform="translate(478.195389, 285.145018)"><g><path d="M 25.148438 4.960938 L 49 -51.953125 L 40.027344 -51.953125 L 25.148438 -13.34375 L 10.152344 -51.953125 L 1.179688 -51.953125 Z M 25.148438 4.960938 "/></g></g></g><g fill="#000000" fill-opacity="1"><g transform="translate(528.370722, 285.145018)"><g><path d="M 59.625 -27.15625 C 59.625 -34.242188 56.792969 -40.378906 51.359375 -45.695312 C 46.046875 -50.769531 39.671875 -53.367188 32.46875 -53.367188 C 24.914062 -53.367188 18.539062 -50.652344 13.222656 -45.339844 C 7.910156 -40.027344 5.3125 -33.652344 5.3125 -26.210938 C 5.3125 -18.65625 7.910156 -12.28125 13.222656 -7.085938 C 15.703125 -4.605469 18.539062 -2.714844 21.84375 -1.296875 C 25.148438 0.117188 29.046875 0.828125 33.652344 0.828125 C 38.253906 0.828125 42.742188 -0.589844 47.230469 -3.425781 C 51.714844 -6.257812 55.023438 -10.273438 57.265625 -15.230469 L 47.820312 -15.230469 C 45.929688 -12.75 43.6875 -10.863281 40.972656 -9.445312 C 38.253906 -8.027344 35.421875 -7.4375 32.46875 -7.4375 C 27.984375 -7.4375 23.96875 -8.855469 20.425781 -11.808594 C 16.882812 -14.640625 14.640625 -18.300781 13.933594 -22.789062 L 59.625 -22.789062 Z M 50.890625 -29.871094 L 14.050781 -29.871094 C 14.523438 -31.996094 15.347656 -34.003906 16.53125 -35.894531 C 20.308594 -42.035156 25.621094 -45.101562 32.46875 -45.101562 C 36.839844 -45.101562 40.734375 -43.6875 44.160156 -40.851562 C 47.699219 -37.902344 49.828125 -34.242188 50.890625 -29.871094 Z M 50.890625 -29.871094 "/></g></g></g><g fill="#000000" fill-opacity="1"><g transform="translate(592.713241, 285.145018)"><g><path d="M 17.121094 0 L 17.121094 -88.554688 L 8.855469 -88.554688 L 8.855469 0 Z M 17.121094 0 "/></g></g></g><g fill="#000000" fill-opacity="1"><g transform="translate(618.686359, 285.145018)"><g><path d="M 50.179688 -25.976562 C 50.179688 -20.898438 48.410156 -16.410156 44.867188 -12.75 C 41.324219 -8.972656 36.957031 -7.085938 31.878906 -7.085938 C 26.683594 -7.085938 22.316406 -8.972656 18.773438 -12.75 C 15.230469 -16.410156 13.578125 -20.898438 13.578125 -25.976562 C 13.578125 -30.933594 15.230469 -35.421875 18.773438 -39.199219 C 22.316406 -42.976562 26.683594 -44.867188 31.878906 -44.867188 C 36.957031 -44.867188 41.324219 -42.976562 44.867188 -39.199219 C 48.410156 -35.421875 50.179688 -30.933594 50.179688 -25.976562 Z M 58.445312 0 L 58.445312 -51.953125 L 50.179688 -51.953125 L 50.179688 -42.976562 C 49.707031 -43.6875 49.117188 -44.277344 48.644531 -44.867188 C 43.6875 -50.296875 37.664062 -53.132812 30.582031 -53.132812 C 23.378906 -53.132812 17.355469 -50.296875 12.398438 -44.867188 C 7.675781 -39.4375 5.3125 -33.179688 5.3125 -25.976562 C 5.3125 -18.65625 7.675781 -12.398438 12.398438 -7.085938 C 17.355469 -1.535156 23.378906 1.179688 30.582031 1.179688 C 37.664062 1.179688 43.6875 -1.535156 48.644531 -7.085938 C 49.117188 -7.554688 49.707031 -8.148438 50.179688 -8.855469 L 50.179688 0 Z M 58.445312 0 "/></g></g></g><g fill="#000000" fill-opacity="1"><g transform="translate(685.980354, 285.145018)"><g><path d="M 57.382812 -33.296875 C 55.730469 -39.082031 52.542969 -43.804688 47.9375 -47.464844 C 43.097656 -51.125 37.78125 -53.015625 31.878906 -53.015625 C 24.441406 -53.015625 18.066406 -50.296875 12.988281 -44.984375 C 7.792969 -39.671875 5.3125 -33.296875 5.3125 -25.976562 C 5.3125 -18.539062 7.792969 -12.28125 12.988281 -6.847656 C 15.347656 -4.367188 18.066406 -2.363281 21.371094 -0.945312 C 24.558594 0.472656 27.863281 1.179688 31.171875 1.179688 C 34.476562 1.179688 37.429688 0.828125 40.027344 -0.117188 C 48.292969 -3.070312 53.957031 -8.621094 56.910156 -17.003906 L 47.582031 -17.003906 C 45.929688 -14.050781 43.804688 -11.6875 40.972656 -10.035156 C 38.136719 -8.265625 35.183594 -7.4375 31.878906 -7.4375 C 26.800781 -7.4375 22.550781 -9.210938 19.007812 -12.871094 C 15.46875 -16.53125 13.8125 -20.898438 13.8125 -25.976562 C 13.8125 -30.816406 15.46875 -35.183594 19.007812 -38.84375 C 20.664062 -40.5 22.550781 -41.914062 24.796875 -42.859375 C 26.921875 -43.804688 29.636719 -44.394531 32.707031 -44.394531 C 35.777344 -44.394531 38.726562 -43.332031 41.796875 -41.324219 C 44.75 -39.199219 46.992188 -36.601562 48.410156 -33.296875 Z M 57.382812 -33.296875 "/></g></g></g><g fill="#000000" fill-opacity="1"><g transform="translate(747.48943, 285.145018)"><g><path d="M 59.625 -27.15625 C 59.625 -34.242188 56.792969 -40.378906 51.359375 -45.695312 C 46.046875 -50.769531 39.671875 -53.367188 32.46875 -53.367188 C 24.914062 -53.367188 18.539062 -50.652344 13.222656 -45.339844 C 7.910156 -40.027344 5.3125 -33.652344 5.3125 -26.210938 C 5.3125 -18.65625 7.910156 -12.28125 13.222656 -7.085938 C 15.703125 -4.605469 18.539062 -2.714844 21.84375 -1.296875 C 25.148438 0.117188 29.046875 0.828125 33.652344 0.828125 C 38.253906 0.828125 42.742188 -0.589844 47.230469 -3.425781 C 51.714844 -6.257812 55.023438 -10.273438 57.265625 -15.230469 L 47.820312 -15.230469 C 45.929688 -12.75 43.6875 -10.863281 40.972656 -9.445312 C 38.253906 -8.027344 35.421875 -7.4375 32.46875 -7.4375 C 27.984375 -7.4375 23.96875 -8.855469 20.425781 -11.808594 C 16.882812 -14.640625 14.640625 -18.300781 13.933594 -22.789062 L 59.625 -22.789062 Z M 50.890625 -29.871094 L 14.050781 -29.871094 C 14.523438 -31.996094 15.347656 -34.003906 16.53125 -35.894531 C 20.308594 -42.035156 25.621094 -45.101562 32.46875 -45.101562 C 36.839844 -45.101562 40.734375 -43.6875 44.160156 -40.851562 C 47.699219 -37.902344 49.828125 -34.242188 50.890625 -29.871094 Z M 50.890625 -29.871094 "/></g></g></g><g fill="#000000" fill-opacity="1"><g transform="translate(811.83195, 285.145018)"><g><path d="M 5.3125 -4.015625 L 5.3125 4.488281 L 55.613281 -20.425781 L 55.613281 -28.808594 L 5.3125 -53.722656 L 5.3125 -45.222656 L 48.765625 -24.558594 Z M 5.3125 -4.015625 "/></g></g></g><g fill="#000000" fill-opacity="1"><g transform="translate(872.732978, 285.145018)"><g/></g></g></svg>